<svg width="24" height="24" viewBox="0 0 24 24" fill="none" xmlns="http://www.w3.org/2000/svg">
<path fill-rule="evenodd" clip-rule="evenodd" d="M3 13.5H8C8.39782 13.5 8.77936 13.342 9.06066 13.0607C9.34196 12.7794 9.5 12.3979 9.5 12C9.5 11.6022 9.34196 11.2207 9.06066 10.9394C8.77936 10.6581 8.39782 10.5 8 10.5H3V3.69504C2.99996 3.52278 3.04443 3.35342 3.12908 3.2034C3.21374 3.05337 3.33571 2.92775 3.48319 2.83873C3.63066 2.7497 3.79863 2.70028 3.97082 2.69525C4.14302 2.69022 4.31358 2.72976 4.466 2.81004L20.319 11.153C20.4803 11.2379 20.6153 11.3651 20.7094 11.5211C20.8036 11.6771 20.8534 11.8558 20.8534 12.038C20.8534 12.2202 20.8036 12.399 20.7094 12.555C20.6153 12.7109 20.4803 12.8382 20.319 12.923L4.466 21.267C4.31358 21.3473 4.14302 21.3869 3.97082 21.3818C3.79863 21.3768 3.63066 21.3274 3.48319 21.2384C3.33571 21.1493 3.21374 21.0237 3.12908 20.8737C3.04443 20.7237 2.99996 20.5543 3 20.382V13.5Z" fill="white"/>
</svg>
